<svg preserveAspectRatio="none" width="100%" height="100%" overflow="visible" style="display: block;" viewBox="0 0 12 12" fill="none" xmlns="http://www.w3.org/2000/svg">
<g id="Group">
<g id="vector (Stroke)">
<mask id="path-1-inside-1_87544_2636" fill="white">
<path fill-rule="evenodd" clip-rule="evenodd" d="M6 8.6C7.43594 8.6 8.6 7.43594 8.6 6C8.6 4.56406 7.43594 3.4 6 3.4C4.56406 3.4 3.4 4.56406 3.4 6C3.4 7.43594 4.56406 8.6 6 8.6ZM6 10C8.20914 10 10 8.20914 10 6C10 3.79086 8.20914 2 6 2C3.79086 2 2 3.79086 2 6C2 8.20914 3.79086 10 6 10Z"/>
</mask>
<path d="M8.6 6H7.1C7.1 6.60751 6.60751 7.1 6 7.1V8.6V10.1C8.26437 10.1 10.1 8.26437 10.1 6H8.6ZM6 3.4V4.9C6.60751 4.9 7.1 5.39249 7.1 6H8.6H10.1C10.1 3.73563 8.26437 1.9 6 1.9V3.4ZM3.4 6H4.9C4.9 5.39249 5.39249 4.9 6 4.9V3.4V1.9C3.73563 1.9 1.9 3.73563 1.9 6H3.4ZM6 8.6V7.1C5.39249 7.1 4.9 6.60751 4.9 6H3.4H1.9C1.9 8.26437 3.73563 10.1 6 10.1V8.6ZM10 6H8.5C8.5 7.38071 7.38071 8.5 6 8.5V10V11.5C9.03757 11.5 11.5 9.03757 11.5 6H10ZM6 2V3.5C7.38071 3.5 8.5 4.61929 8.5 6H10H11.5C11.5 2.96243 9.03757 0.5 6 0.5V2ZM2 6H3.5C3.5 4.61929 4.61929 3.5 6 3.5V2V0.5C2.96243 0.5 0.5 2.96243 0.5 6H2ZM6 10V8.5C4.61929 8.5 3.5 7.38071 3.5 6H2H0.5C0.5 9.03757 2.96243 11.5 6 11.5V10Z" fill="var(--stroke-0, white)" style="fill:white;fill-opacity:1;" mask="url(#path-1-inside-1_87544_2636)"/>
</g>
</g>
</svg>
