<svg preserveAspectRatio="none" width="100%" height="100%" overflow="visible" style="display: block;" viewBox="0 0 6 9" fill="none" xmlns="http://www.w3.org/2000/svg">
<g id="group">
<g id="Vector">
<path d="M0 0.5C0 0.223858 0.223858 0 0.5 0H1.5C1.77614 0 2 0.223858 2 0.5V8.5C2 8.77614 1.77614 9 1.5 9H0.5C0.223858 9 0 8.77614 0 8.5V0.5Z" fill="var(--fill-0, white)" style="fill:white;fill-opacity:1;"/>
<path d="M4 0.5C4 0.223858 4.22386 0 4.5 0H5.5C5.77614 0 6 0.223858 6 0.5V8.5C6 8.77614 5.77614 9 5.5 9H4.5C4.22386 9 4 8.77614 4 8.5V0.5Z" fill="var(--fill-0, white)" style="fill:white;fill-opacity:1;"/>
</g>
</g>
</svg>
