<svg preserveAspectRatio="none" width="100%" height="100%" overflow="visible" style="display: block;" viewBox="0 0 24.8964 6.14203" fill="none" xmlns="http://www.w3.org/2000/svg">
<g id="Group">
<path id="Vector" d="M7.9956 1.69505C7.54975 1.69505 7.13466 1.85263 6.83102 2.14089L6.72725 2.2389V7.80188e-05H5.5377V3.82625C5.5377 5.2541 6.39095 6.14002 7.76499 6.14002C9.13903 6.14002 10.0826 5.20798 10.0826 3.92234C10.0826 2.6367 9.20437 1.69505 7.9956 1.69505ZM7.80534 5.05232C7.18078 5.05232 6.67152 4.54306 6.67152 3.92042C6.67152 3.29778 7.18078 2.78659 7.80534 2.78659C8.42991 2.78659 8.93917 3.29585 8.93917 3.92042C8.93917 4.54498 8.42991 5.05232 7.80534 5.05232Z" fill="var(--fill-0, white)" style="fill:white;fill-opacity:1;"/>
<path id="Vector_2" d="M3.55713 0L1.20301 2.73079V0H0V5.99966H1.20301V3.29193L3.60518 5.99966H5.15217L2.49441 2.99983L5.08107 0H3.55713Z" fill="var(--fill-0, white)" style="fill:white;fill-opacity:1;"/>
<path id="Vector_3" d="M24.8964 1.83534H23.5724L22.0484 3.63408V7.80188e-05H20.8589V6.00166H22.0484V4.20099L23.5724 6.00166H24.8964L23.1342 3.91657L24.8964 1.83534Z" fill="var(--fill-0, white)" style="fill:white;fill-opacity:1;"/>
<path id="Vector_4" d="M18.5274 1.69514C17.7933 1.69514 17.3398 2.03913 17.1226 2.27934V1.83734H15.9734V6.00174H17.163V3.7341C17.163 3.16718 17.5569 2.77131 18.0508 2.77131C18.5447 2.77131 18.9406 3.16718 18.9406 3.7341V6.00174H20.1301V3.37665C20.1301 2.40233 19.4229 1.69514 18.5255 1.69514H18.5274Z" fill="var(--fill-0, white)" style="fill:white;fill-opacity:1;"/>
<path id="Vector_5" d="M12.9353 1.69514C11.6074 1.69514 10.6427 2.63102 10.6427 3.92243C10.6427 5.21383 11.5324 6.14203 12.7566 6.14203C13.9807 6.14203 14.0922 5.5117 14.096 5.50594L14.1633 5.41177V6.00174H15.2452V3.92243C15.2452 2.63294 14.2747 1.69514 12.9353 1.69514ZM12.9718 5.05241C12.3472 5.05241 11.838 4.54315 11.838 3.9205C11.838 3.29786 12.3472 2.78668 12.9718 2.78668C13.5964 2.78668 14.1056 3.29594 14.1056 3.9205C14.1056 4.54507 13.5964 5.05241 12.9718 5.05241Z" fill="var(--fill-0, white)" style="fill:white;fill-opacity:1;"/>
</g>
</svg>
