<svg preserveAspectRatio="none" width="100%" height="100%" overflow="visible" style="display: block;" viewBox="0 0 82.1035 20" fill="none" xmlns="http://www.w3.org/2000/svg">
<g id="BrandLogoBox">
<path id="Union" d="M22.2666 7.29395L22.6113 6.97168C23.5475 6.09454 24.8021 5.58647 26.168 5.52637L26.4463 5.52051C30.4299 5.52051 33.3193 8.58439 33.3193 12.7705C33.3193 16.9567 30.2083 19.9951 25.6846 19.9951C21.1609 19.9951 18.3496 17.1068 18.3496 12.46V0.00683594H22.2666V7.29395ZM42.71 5.52051C47.1189 5.52051 50.3193 8.56976 50.3193 12.7705V19.542H46.7529V17.6182L46.5312 17.9219C46.5165 17.9438 44.9848 19.9951 42.1182 19.9951C38.0829 19.9949 35.1572 16.9712 35.1572 12.7705C35.1573 8.5699 38.3345 5.52071 42.71 5.52051ZM61.123 5.52051C64.0784 5.52051 66.4053 7.82067 66.4053 10.9941V19.5381H62.4883V12.1562C62.4882 10.31 61.1899 9.02344 59.5625 9.02344C57.9351 9.02349 56.6368 10.3101 56.6367 12.1562V19.5381H52.7158V5.98145H56.5V7.42188C57.2101 6.63953 58.7043 5.52065 61.123 5.52051ZM72.7227 11.835L77.7383 5.97754H82.1035L76.2998 12.7559L82.1035 19.5381H77.7383L72.7227 13.6807V19.5381H68.8057V0H72.7227V11.835ZM4.06836 8.89551L11.8213 0H16.8408L8.32227 9.76855L17.0771 19.5342H11.9805L4.06836 10.7197V19.5342H0.103516V0H4.06836V8.89551ZM25.8213 9.07031C23.7648 9.07042 22.0889 10.7271 22.0889 12.7598C22.0889 14.7924 23.7648 16.4481 25.8213 16.4482C27.8778 16.4482 29.5537 14.7925 29.5537 12.7598C29.5537 10.727 27.8779 9.07031 25.8213 9.07031ZM42.8291 9.07031C40.7725 9.07031 39.0967 10.727 39.0967 12.7598C39.0967 14.7925 40.7726 16.4482 42.8291 16.4482C44.8855 16.4481 46.5605 14.7924 46.5605 12.7598C46.5605 10.7271 44.8855 9.0705 42.8291 9.07031Z" fill="var(--fill-0, #0114A7)" style="fill:#0114A7;fill:color(display-p3 0.0039 0.0784 0.6549);fill-opacity:1;"/>
</g>
</svg>
