<svg width="200" height="132" viewBox="0 0 200 132" fill="none" xmlns="http://www.w3.org/2000/svg">
<g clip-path="url(#clip0_601_2026)">
<path d="M50.4648 38.1611V46.088H69.3646V52.5898H79.8625V46.088H97.07V38.1611H50.4648Z" fill="white"/>
<path d="M82.3513 13.1699V17.457H65.1854V13.1699H54.6875V22.9196C54.6875 26.5417 54.9844 30.3537 56.1482 32.1231C57.8879 34.7654 60.2927 35.7273 73.7713 35.7273C87.2499 35.7273 89.6488 34.7654 91.3944 32.1231C92.5582 30.3537 92.8551 26.5417 92.8551 22.9196V13.1699H82.3572H82.3513ZM82.3513 26.5357C82.3513 28.0676 81.5913 28.6495 80.1365 28.6495H67.4001C65.9454 28.6495 65.1854 28.0736 65.1854 26.5357V24.5466H82.3513V26.5357Z" fill="white"/>
<path d="M94.4459 51.379C90.9783 53.3741 78.4854 57.6255 71.4314 57.6255C68.1715 57.6255 66.0933 57.5008 64.9414 56.5389C64.1102 55.8442 63.8311 54.8585 63.8311 53.0891C63.8311 51.9015 64.0448 50.3102 64.2883 49.0871L53.731 49.0752C53.5588 50.0905 53.3926 51.29 53.3926 52.5844C53.3926 56.0639 53.8913 59.3771 56.4564 61.8057C59.1581 64.3648 62.9167 64.8695 72.3873 64.8695C79.6135 64.8695 88.7398 63.8126 94.4459 62.1144V51.379Z" fill="white"/>
<path d="M172.776 28.3524C186.231 28.3524 192.044 24.6591 192.044 16.6254C192.044 8.5917 186.231 4.89844 172.776 4.89844C159.321 4.89844 153.508 8.5917 153.508 16.6254C153.508 24.6591 159.321 28.3524 172.776 28.3524ZM172.776 11.9762C178.856 11.9762 181.546 13.5319 181.546 16.6254C181.546 19.719 178.856 21.2747 172.776 21.2747C166.695 21.2747 164.006 19.719 164.006 16.6254C164.006 13.5319 166.695 11.9762 172.776 11.9762Z" fill="white"/>
<path d="M196.082 30.7334H149.477V38.6543H196.082V30.7334Z" fill="white"/>
<path d="M193.708 43.9503C190.24 45.9454 177.747 50.1968 170.693 50.1968C167.433 50.1968 165.355 50.0721 164.203 49.1102C163.372 48.4155 163.093 47.4298 163.093 45.6604C163.093 44.4728 163.307 42.8815 163.55 41.6584L152.993 41.6465C152.821 42.6618 152.654 43.8613 152.654 45.1557C152.654 48.6352 153.153 51.9484 155.718 54.3769C158.42 56.9361 162.178 57.4408 171.649 57.4408C178.875 57.4408 188.002 56.3839 193.708 54.6857V43.9503Z" fill="white"/>
<path d="M73.2967 99.0111C85.7956 99.0111 92.6774 96.7072 92.6774 88.5251C92.6774 80.3429 85.7956 78.0391 73.2967 78.0391C60.7978 78.0391 53.916 80.3429 53.916 88.5251C53.916 96.7072 60.7978 99.0111 73.2967 99.0111ZM73.2967 85.1228C78.801 85.1228 82.1795 85.9243 82.1795 88.5251C82.1795 91.1258 78.801 91.9274 73.2967 91.9274C67.7925 91.9274 64.4139 91.1258 64.4139 88.5251C64.4139 85.9243 67.7925 85.1228 73.2967 85.1228Z" fill="white"/>
<path d="M49.9904 100.662V108.583H57.7985V113.998C54.7109 115.59 53.2027 118.042 53.2027 121.605C53.2027 128.991 59.6689 131.627 73.29 131.627C86.9111 131.627 93.3773 128.997 93.3773 121.605C93.3773 118.036 91.8691 115.584 88.7755 113.992V108.577H96.5836V100.656H49.9785L49.9904 100.662ZM68.1479 108.583H78.438V111.742C76.8526 111.641 75.1425 111.588 73.29 111.588C71.4374 111.588 69.7274 111.635 68.142 111.742V108.583H68.1479ZM73.2959 124.544C67.1919 124.544 63.7065 123.932 63.7065 121.605C63.7065 119.277 67.1919 118.665 73.2959 118.665C79.3999 118.665 82.8853 119.277 82.8853 121.605C82.8853 123.932 79.3999 124.544 73.2959 124.544Z" fill="white"/>
<path d="M128.564 20.259V16.9102H118.043V20.259H100.004V28.1859H146.609V20.259H128.564Z" fill="white"/>
<path d="M102.807 11.1688L104.149 18.4366C111.339 17.7894 118.892 16.1387 123.054 13.3836C127.591 15.3193 135.607 17.4272 142.488 17.926L143.795 10.8541C136.99 10.3376 131.664 9.0847 128.149 8.00998C128.25 7.69528 128.297 7.45777 128.309 7.08369H141.687V0H104.392V7.08369H117.514C117.075 9.22127 109.35 10.5394 102.801 11.1688H102.807Z" fill="white"/>
<path d="M143.48 32.2602H128.564V29.3389H118.042V32.2602H103.127V39.3439H107.171C106.381 40.484 106.013 41.8378 106.013 43.3875C106.013 49.0283 110.834 52.0091 123.303 52.0091C135.773 52.0091 140.594 49.0224 140.594 43.3875C140.594 41.8378 140.226 40.4899 139.436 39.3439H143.48V32.2602ZM123.303 45.3351C118.298 45.3351 116.356 44.1772 116.356 42.289C116.356 40.4008 118.292 39.243 123.303 39.243C128.315 39.243 130.25 40.4008 130.25 42.289C130.25 44.1772 128.315 45.3351 123.303 45.3351Z" fill="white"/>
<path d="M44.6717 5.06543H34.1738V56.9017H44.6717V5.06543Z" fill="white"/>
<path d="M26.7929 10.9492C25.1423 8.91847 23.0581 8.14062 17.8567 8.14062H3.28553V16.4653H15.82C16.9423 16.4653 17.4292 16.7206 17.8032 17.3025C18.017 17.641 18.302 18.5673 18.302 20.8711C18.302 27.2244 16.4435 37.3601 1.62891 41.4156L4.46713 49.9243C22.4406 46.332 28.693 33.4412 28.693 19.2501C28.693 14.9452 28.022 12.4573 26.7929 10.9492Z" fill="white"/>
<path d="M41.6372 111.475C41.9816 110.477 42.4922 108.957 42.4922 107.134C42.4922 105.311 42.1538 101.85 36.0973 101.85H3.90894C3.90894 101.85 3.11328 112.146 3.11328 114.479C3.11328 122.839 11.3608 123.225 22.488 123.225C30.9374 123.225 38.8286 121.878 44.9564 119.829V109.877C44.1191 110.341 42.5397 111.136 41.6312 111.475H41.6372ZM31.5015 114.687C26.6326 115.999 19.822 116.183 14.5196 115.708C14.0209 115.661 13.6527 115.399 13.6527 114.818V109.771H31.3115C32.6593 109.771 33.1878 111.118 31.5015 114.687Z" fill="white"/>
<path d="M46.6111 89.7721V97.693H0V89.7721H29.2076C31.0661 85.396 32.2952 82.065 31.7015 80.8359C31.2739 79.9452 30.4605 79.7315 28.2813 79.7315H3.91295V71.8105H33.1265C37.847 71.8105 39.658 73.3722 40.8752 75.0525C41.8728 76.4301 42.2112 78.0867 42.2112 79.9096C42.2112 82.9734 40.418 87.6108 39.6402 89.7721H46.6111Z" fill="white"/>
<path d="M124.889 95.8584C112.063 95.8584 104.902 99.0469 104.902 107.158C104.902 115.269 112.063 118.457 124.889 118.457C137.714 118.457 144.875 115.269 144.875 107.158C144.875 99.0469 137.714 95.8584 124.889 95.8584ZM124.889 111.374C118.945 111.374 115.192 110.186 115.192 107.158C115.192 104.13 118.939 102.942 124.889 102.942C130.838 102.942 134.585 104.13 134.585 107.158C134.585 110.186 130.838 111.374 124.889 111.374Z" fill="white"/>
<path d="M135.529 65.1671V75.7778H132.632V65.838H122.959V84.2331L114.474 78.7169C115.994 73.082 116.113 66.9128 116.113 66.9128H107.105C107.105 66.9128 107.349 71.657 105.36 76.7159C103.418 81.6502 98.8639 85.1237 97.041 86.3588L102.89 93.7037C104.671 92.6527 108.067 89.9155 110.419 86.6794L119.521 92.9734L122.953 87.8254V93.9294H132.626V83.6987H135.523V94.5884H145.19V65.1611H135.523L135.529 65.1671Z" fill="white"/>
<path d="M167.042 117.228C166.68 117.192 166.401 116.877 166.401 116.515L166.519 114.662H179.749C189.308 114.662 194.118 113.962 194.118 107.395C194.118 102.33 190.05 101.089 185.389 101.089H156.496V107.098H182.563C183.145 107.098 183.62 107.573 183.62 108.155C183.62 108.737 183.145 109.212 182.563 109.212H156.431C156.431 109.212 155.879 115.268 155.879 117.091C155.879 123.142 161.241 123.89 173.152 123.89C183.78 123.89 190.264 122.839 196.861 121.135V112.091C192.633 114.704 183.258 118.706 167.042 117.228Z" fill="white"/>
<path d="M200.001 82.802H194.117V71.0987H183.619V90.3607C180.163 91.3344 175.835 92.0054 171.097 92.4389V90.9663C177.189 90.426 179.54 88.0034 179.54 83.7935C179.54 82.8198 179.421 81.9469 179.166 81.175H181.494V74.2457H171.518V70.7959H161.02V74.2457H151.045V81.175H153.372C153.117 81.9469 152.998 82.8198 152.998 83.7935C152.998 88.0034 155.35 90.426 161.442 90.9663V92.9911C157.992 93.0861 154.489 93.092 151.075 93.0148V100.075C159.376 100.075 176.553 98.6141 183.625 96.8387V99.5404H194.123V90.7288H200.007V82.8079L200.001 82.802ZM166.245 79.7678C169.428 79.7678 170.562 80.8306 170.562 82.7544C170.562 84.6783 169.428 85.7411 166.245 85.7411C163.063 85.7411 161.905 84.6783 161.905 82.7544C161.905 80.8306 163.063 79.7678 166.245 79.7678Z" fill="white"/>
</g>
<defs>
<clipPath id="clip0_601_2026">
<rect width="200" height="131.627" fill="white"/>
</clipPath>
</defs>
</svg>
